<svg width="63" height="63" viewBox="0 0 63 63" fill="none" xmlns="http://www.w3.org/2000/svg">
<circle cx="31.5" cy="31.5" r="31.5" fill="#44B31F"/>
<circle cx="31.5" cy="31.5" r="24.5" fill="#318216"/>
<circle cx="31.5" cy="31.5" r="18.5" fill="#1D5A09"/>
<path d="M30.632 31.772C33.162 31.772 34.482 33.048 34.482 34.962C34.482 37.008 33.14 38.328 31.072 38.328C29.07 38.328 27.794 37.118 27.794 35.05H25.66C25.66 38.35 27.904 40.264 31.028 40.264C34.262 40.264 36.682 38.218 36.682 35.006C36.682 32.146 34.636 30.32 31.93 29.99L36.286 25.832V24.094H26.408V26.008H33.558L29.048 30.342V31.772H30.632Z" fill="white"/>
</svg>
